PathFileType	4	(X/Y/Z)	/Users/itak/Documents/Research/Walk-IL/dataset/trc/00238_00009.trc
DataRate	CameraRate	NumFrames	NumMarkers	Units	OrigDataRate	OrigDataStartFrame	OrigNumFrames
100.000000	100.000000	4	53	mm	100.000000	206	827
Frame#	Time	RPSI			LPSI			L3			STRN			T10			C7			CLAV			RBAK			LBAK			LSHO			LUPA			LAEL			LAOL			LWTS			LWPS			LFRA			LIFD			LHPS			LHTS			RSHO			RUPA			RAEL			RAOL			RWTS			RWPS			RFRA			RIFD			RHTS			RHPS			RBHD			LFHD			RFHD			LBHD			LHIP			RHIP			RASI			LASI			LKNE			LTHI			LANK			LTIP			LTOE			LMT1			LMT5			LHEE			RKNE			RTHI			RANK			RTIP			RTOE			RMT1			RMT5			RHEE			
		X1	Y1	Z1	X2	Y2	Z2	X3	Y3	Z3	X4	Y4	Z4	X5	Y5	Z5	X6	Y6	Z6	X7	Y7	Z7	X8	Y8	Z8	X9	Y9	Z9	X10	Y10	Z10	X11	Y11	Z11	X12	Y12	Z12	X13	Y13	Z13	X14	Y14	Z14	X15	Y15	Z15	X16	Y16	Z16	X17	Y17	Z17	X18	Y18	Z18	X19	Y19	Z19	X20	Y20	Z20	X21	Y21	Z21	X22	Y22	Z22	X23	Y23	Z23	X24	Y24	Z24	X25	Y25	Z25	X26	Y26	Z26	X27	Y27	Z27	X28	Y28	Z28	X29	Y29	Z29	X30	Y30	Z30	X31	Y31	Z31	X32	Y32	Z32	X33	Y33	Z33	X34	Y34	Z34	X35	Y35	Z35	X36	Y36	Z36	X37	Y37	Z37	X38	Y38	Z38	X39	Y39	Z39	X40	Y40	Z40	X41	Y41	Z41	X42	Y42	Z42	X43	Y43	Z43	X44	Y44	Z44	X45	Y45	Z45	X46	Y46	Z46	X47	Y47	Z47	X48	Y48	Z48	X49	Y49	Z49	X50	Y50	Z50	X51	Y51	Z51	X52	Y52	Z52	X53	Y53	Z53	

207	2.06	-189.5851898193359	1040.1015625	658.9393920898438	-277.0918579101562	1052.144775390625	740.85009765625	-241.7085571289062	1132.698364257812	715.6183471679688	-423.2252807617188	1309.43017578125	536.2850952148438	-236.9071655273438	1258.889282226562	712.4021606445312	-289.5879821777344	1518.365112304688	666.1245727539062	-406.2119750976562	1427.595458984375	551.61962890625	-179.588134765625	1383.957397460938	670.7765502929688	-354.1604614257812	1479.382446289062	758.9819946289062	-455.8998107910156	1479.250122070312	736.3513793945312	-494.6472473144531	1366.158813476562	815.8701782226562	-546.1848754882812	1161.247314453125	834.8701171875	-464.0426635742188	1134.364379882812	850.8358764648438	-606.4556884765625	945.7448120117188	710.8075561523438	-647.6631469726562	928.6177368164062	782.4404296875	-588.3624877929688	1060.290283203125	821.4332275390625	-664.666015625	758.7066650390625	687.4282836914062	-675.3665771484375	847.0105590820312	757.0784912109375	-664.7760620117188	857.6929931640625	689.481201171875	-214.3237915039062	1474.183959960938	504.061279296875	-152.4141998291016	1409.049682617188	471.5275268554688	-108.5632629394531	1127.794067382812	463.3682250976562	-147.6493072509766	1121.017211914062	550.20458984375	-253.5497894287109	930.3013305664062	384.6044921875	-171.5797424316406	908.6631469726562	376.4832763671875	-122.461540222168	1060.99853515625	433.18115234375	-284.2313537597656	736.4193115234375	365.8951416015625	-279.9069213867188	811.9302978515625	340.9752502441406	-207.4333190917969	805.5790405273438	344.1488037109375	-286.8099060058594	1670.05078125	607.6251220703125	-485.5445861816406	1716.191650390625	506.4773254394531	-406.5407104492188	1710.652099609375	444.5116577148438	-418.7833862304688	1682.481567382812	654.0364990234375	-449.48828125	995.2025756835938	768.4008178710938	-181.6683654785156	999.0830688476562	515.061279296875	-275.796142578125	1045.975463867188	472.8957824707031	-484.9210815429688	1033.172119140625	662.09716796875	-463.9931945800781	510.2357482910156	698.6099243164062	-473.6664123535156	654.4546508789062	726.0923461914062	-386.3911437988281	37.57159805297852	764.2648315429688	-430.1469421386719	284.05859375	738.9677734375	-483.4800720214844	44.27289962768555	564.0264282226562	-406.0721435546875	40.50161361694336	588.206298828125	-482.4220581054688	36.58857345581055	680.4131469726562	-306.6256713867188	47.27556991577148	776.3154907226562	-306.0916137695312	520.2252807617188	433.0539855957031	-245.6015777587891	784.3477783203125	446.2144775390625	-89.9434814453125	154.6170349121094	666.8140258789062	-291.040771484375	410.1900329589844	467.1882934570312	-237.8761596679688	51.34467315673828	560.4660034179688	-236.8955841064453	69.30680847167969	628.1581420898438	-130.3665924072266	95.18207550048828	580.0936889648438	-99.52048492431641	185.4901275634766	745.3550415039062	
208	2.07	-194.2552032470703	1039.945068359375	656.5029296875	-282.484130859375	1052.020629882812	737.5908203125	-247.0972442626953	1132.743530273438	712.78955078125	-426.7462768554688	1309.24609375	531.3278198242188	-242.7569274902344	1258.930908203125	709.9409790039062	-294.8273620605469	1518.310180664062	662.564697265625	-409.7796020507812	1427.426635742188	546.6553344726562	-184.9009246826172	1383.975341796875	669.2561645507812	-360.6830749511719	1479.496826171875	754.6666870117188	-462.0127258300781	1479.533935546875	730.4306640625	-502.6514587402344	1366.814208984375	809.4859008789062	-555.9406127929688	1162.305786132812	827.6336669921875	-474.3931579589844	1134.69970703125	845.035888671875	-615.825927734375	947.7164916992188	701.8189697265625	-658.5040893554688	930.7440795898438	772.6101684570312	-598.7128295898438	1061.736083984375	813.1029052734375	-675.248046875	761.2748413085938	676.7379150390625	-686.5020751953125	849.5386352539062	746.5062866210938	-674.484619140625	860.3363037109375	679.0799560546875	-217.1417694091797	1473.627685546875	501.6524047851562	-154.7505035400391	1408.225708007812	470.4259338378906	-111.2737426757812	1126.717407226562	465.4977111816406	-153.5887756347656	1120.156982421875	550.6646728515625	-255.2083129882812	931.8736572265625	379.4759216308594	-173.5041351318359	908.8817138671875	375.1466369628906	-124.5820770263672	1060.124755859375	434.5960693359375	-288.1067199707031	738.7092895507812	358.1046447753906	-281.2632141113281	814.1724243164062	333.7859802246094	-209.3054962158203	806.6359252929688	340.4909973144531	-290.8311157226562	1669.780029296875	603.7103881835938	-488.555419921875	1716.15576171875	500.6626586914062	-408.9761047363281	1710.458862304688	439.4697570800781	-423.2785339355469	1682.460815429688	648.8817138671875	-454.8976745605469	995.04345703125	764.033203125	-185.4693756103516	999.32666015625	512.6175537109375	-279.1841430664062	1046.00439453125	469.8551025390625	-489.9000854492188	1032.922607421875	657.4093017578125	-465.9402465820312	509.7304382324219	697.567626953125	-477.0001525878906	654.1328125	723.6790771484375	-386.3598327636719	37.59707260131836	764.2374267578125	-430.9045715332031	283.9413452148438	738.7012329101562	-483.5141296386719	44.27043914794922	564.1092529296875	-406.1181640625	40.59232711791992	588.3045043945312	-482.4749755859375	36.53522872924805	680.4705810546875	-306.5674438476562	47.43324661254883	776.317626953125	-313.0957641601562	521.98876953125	424.720947265625	-249.4866333007812	785.67431640625	441.3553161621094	-109.0089416503906	146.4728393554688	655.217529296875	-300.6897583007812	410.7470092773438	457.6994323730469	-259.1917724609375	50.8051872253418	545.2767944335938	-258.3523864746094	67.08476257324219	613.4105224609375	-150.5795440673828	90.30783081054688	567.1402587890625	-118.2755813598633	176.1631317138672	734.2415771484375	
209	2.08	-198.8446350097656	1039.671630859375	653.9784545898438	-287.7510681152344	1051.794555664062	734.2637329101562	-252.4250640869141	1132.700805664062	709.859130859375	-430.2327270507812	1308.940673828125	526.3316650390625	-248.5397491455078	1258.85986328125	707.3711547851562	-300.0851745605469	1518.158325195312	658.8832397460938	-413.3058166503906	1427.139282226562	541.6293334960938	-190.2237396240234	1383.874145507812	667.6146850585938	-367.0772094726562	1479.520874023438	750.2498168945312	-468.0255432128906	1479.708984375	724.4325561523438	-510.5005187988281	1367.36865234375	803.02587890625	-565.5281982421875	1163.274658203125	820.3108520507812	-484.6501770019531	1134.948852539062	839.1459350585938	-624.9017333984375	949.574462890625	692.755126953125	-669.0465087890625	932.7763061523438	762.7098999023438	-608.822265625	1063.078857421875	804.6817016601562	-685.5025024414062	763.800048828125	665.9104614257812	-697.295166015625	851.9744873046875	735.8360595703125	-683.8914794921875	862.8939819335938	668.5833129882812	-219.9337310791016	1472.95068359375	499.1798706054688	-157.1009674072266	1407.269775390625	469.2590026855469	-114.1509857177734	1125.515014648438	467.5835876464844	-159.7179565429688	1119.182495117188	550.9259643554688	-256.4759521484375	933.2715454101562	374.1464538574219	-175.2090606689453	908.8397827148438	373.9236450195312	-126.7999649047852	1059.103759765625	436.0064697265625	-291.255126953125	740.9769897460938	349.5311584472656	-281.8135375976562	816.3665771484375	326.0503234863281	-210.655517578125	807.5721435546875	336.6493225097656	-294.859619140625	1669.384887695312	599.7354125976562	-491.5463562011719	1716.033203125	494.7918395996094	-411.3832397460938	1710.1826171875	434.3884887695312	-427.7557067871094	1682.316650390625	643.6669311523438	-460.2823181152344	994.8109130859375	759.5768432617188	-189.2264099121094	999.3995971679688	510.0845336914062	-282.5710144042969	1045.890258789062	466.7567749023438	-494.8215942382812	1032.630126953125	652.6395263671875	-467.8025817871094	509.2391052246094	696.5975952148438	-480.2653503417969	653.77978515625	721.3225708007812	-386.311767578125	37.64426422119141	764.196533203125	-431.5859680175781	283.8338928222656	738.4679565429688	-483.5547180175781	44.26694488525391	564.1948852539062	-406.1847534179688	40.69556427001953	588.3953247070312	-482.52685546875	36.47854614257812	680.5291748046875	-306.5016479492188	47.57640075683594	776.2955322265625	-319.9306945800781	523.6605834960938	416.5179138183594	-253.3501129150391	786.8683471679688	436.484375	-128.5404663085938	137.9812469482422	643.0233154296875	-310.236572265625	411.1579284667969	448.2547302246094	-280.7405090332031	50.50139236450195	529.2817993164062	-280.0904541015625	64.95719909667969	597.868896484375	-171.1385192871094	85.39451599121094	553.4655151367188	-137.5871887207031	166.2645416259766	722.5595092773438	
210	2.09	-203.3731384277344	1039.288208007812	651.3800048828125	-292.930908203125	1051.463745117188	730.8764038085938	-257.6977844238281	1132.562377929688	706.837646484375	-433.6764221191406	1308.523559570312	521.29345703125	-254.2669372558594	1258.67578125	704.6931762695312	-305.3454895019531	1517.914306640625	655.09619140625	-416.7910461425781	1426.74365234375	536.5459594726562	-195.5579986572266	1383.649780273438	665.85400390625	-373.3447875976562	1479.456176757812	745.7391357421875	-473.9426574707031	1479.774169921875	718.3701171875	-518.1828002929688	1367.821533203125	796.4849853515625	-574.9409790039062	1164.151489257812	812.9068603515625	-494.7712097167969	1135.125610351562	833.1670532226562	-633.6834106445312	951.30615234375	683.6287841796875	-679.2842407226562	934.7098999023438	752.7426147460938	-618.6832275390625	1064.320434570312	796.1871948242188	-695.4098510742188	766.2672119140625	654.969970703125	-707.7244873046875	854.3041381835938	725.0724487304688	-692.986328125	865.3363037109375	658.0194091796875	-222.6975250244141	1472.176147460938	496.6596374511719	-159.4645690917969	1406.212646484375	468.0233154296875	-117.2124557495117	1124.218872070312	469.4992370605469	-165.986328125	1118.123413085938	550.9125366210938	-257.37890625	934.4495849609375	368.6827392578125	-176.7339782714844	908.5325927734375	372.7851257324219	-129.1390991210938	1057.9638671875	437.3045349121094	-293.6111145019531	743.1571044921875	340.3140869140625	-281.556884765625	818.458740234375	317.9037475585938	-211.4941558837891	808.3565673828125	332.6723937988281	-298.9010314941406	1668.879272460938	595.6929321289062	-494.5246887207031	1715.82080078125	488.8583984375	-413.7725830078125	1709.82373046875	429.259033203125	-432.2145080566406	1682.056274414062	638.3843994140625	-465.6532897949219	994.5079345703125	755.0374145507812	-192.9497985839844	999.317138671875	507.4664611816406	-285.9481201171875	1045.642700195312	463.6068725585938	-499.7345275878906	1032.318969726562	647.7305297851562	-469.5777282714844	508.7485046386719	695.6586303710938	-483.4614868164062	653.3983154296875	718.9653930664062	-386.2486877441406	37.71359252929688	764.1427001953125	-432.1937561035156	283.7410583496094	738.2593383789062	-483.599365234375	44.26201629638672	564.2777709960938	-406.2643737792969	40.80002593994141	588.4742431640625	-482.5733642578125	36.42101287841797	680.58642578125	-306.4406433105469	47.69701766967773	776.2525024414062	-326.5650939941406	525.2509155273438	408.4900207519531	-257.1677856445312	787.93017578125	431.6189880371094	-148.4786071777344	129.3381805419922	630.2939453125	-319.6110534667969	411.480224609375	438.8750610351562	-302.1711120605469	50.5097541809082	512.36572265625	-301.8661499023438	62.97461318969727	581.4078979492188	-191.7790985107422	80.64023590087891	539.0678100585938	-157.5518341064453	155.9373168945312	710.357177734375	
